<svg width="21" height="21" viewBox="0 0 21 21" fill="none" xmlns="http://www.w3.org/2000/svg">
<g clip-path="url(#clip0)">
<path d="M20.8718 18.8985L14.7715 13.0268C15.9285 11.6519 16.625 9.904 16.625 8.00092C16.625 3.58923 12.896 0 8.31249 0C3.72898 0 0 3.58923 0 8.00092C0 12.4126 3.72903 16.0018 8.31253 16.0018C10.2897 16.0018 12.1057 15.3314 13.5342 14.2178L19.6345 20.0894C19.8055 20.2539 20.0824 20.2539 20.2533 20.0894L20.8719 19.494C21.0427 19.3296 21.0427 19.0629 20.8718 18.8985ZM8.31253 14.3174C4.69376 14.3174 1.75002 11.484 1.75002 8.00092C1.75002 4.5178 4.69376 1.68441 8.31253 1.68441C11.9313 1.68441 14.875 4.5178 14.875 8.00092C14.875 11.484 11.9313 14.3174 8.31253 14.3174Z" fill="#B494BC"/>
</g>
<defs>
<clipPath id="clip0">
<rect width="21" height="20.2128" fill="white"/>
</clipPath>
</defs>
</svg>
