<svg width="26" height="26" viewBox="0 0 26 26" fill="none" xmlns="http://www.w3.org/2000/svg">
<path d="M24.805 22.7959H24.3717V11.4969C25.3501 10.8673 26 9.76961 26 8.52222C26 8.45595 25.9827 8.3908 25.9498 8.33326L22.9277 3.0445C22.7154 2.67313 22.3179 2.44238 21.8901 2.44238H4.10988C3.68215 2.44238 3.28458 2.67308 3.07232 3.0445L0.0501719 8.33326C0.0173164 8.3908 0 8.456 0 8.52222C0 9.76961 0.649898 10.8673 1.62825 11.4969V22.7959H1.19498C0.984648 22.7959 0.814125 22.9664 0.814125 23.1767C0.814125 23.3871 0.984648 23.5576 1.19498 23.5576H24.805C25.0154 23.5576 25.1859 23.3871 25.1859 23.1767C25.1859 22.9664 25.0154 22.7959 24.805 22.7959ZM0.787973 8.90308H2.00896C2.21929 8.90308 2.38982 8.73255 2.38982 8.52222C2.38982 8.31188 2.21929 8.14136 2.00896 8.14136H1.03716L3.73369 3.42241C3.81068 3.28774 3.95479 3.2041 4.10988 3.2041H21.8901C22.0452 3.2041 22.1894 3.28774 22.2663 3.42241L24.9628 8.14136H23.9908C23.7804 8.14136 23.6099 8.31188 23.6099 8.52222C23.6099 8.73255 23.7804 8.90308 23.9908 8.90308H25.212C25.0258 10.253 23.8646 11.2961 22.4643 11.2961C21.064 11.2961 19.9035 10.2529 19.7172 8.90308H22.3627C22.5731 8.90308 22.7435 8.73255 22.7435 8.52222C22.7435 8.31188 22.5731 8.14136 22.3627 8.14136H3.63751C3.42718 8.14136 3.25665 8.31188 3.25665 8.52222C3.25665 8.73255 3.42718 8.90308 3.63751 8.90308H6.28276C6.09649 10.2529 4.93589 11.2961 3.53564 11.2961C2.1353 11.2961 0.974187 10.253 0.787973 8.90308ZM18.9019 8.90308C18.7156 10.2529 17.555 11.2961 16.1548 11.2961C14.7545 11.2961 13.5939 10.2529 13.4077 8.90308H18.9019ZM12.5923 8.90308C12.4061 10.2529 11.2455 11.2961 9.84521 11.2961C8.44497 11.2961 7.28437 10.2529 7.0981 8.90308H12.5923ZM21.5746 22.7959H17.4515V21.5223H21.5746V22.7959ZM21.5746 20.7605H17.4515V13.7879H21.5746V20.7605ZM23.61 22.7959H22.3364V13.4071C22.3364 13.1967 22.1659 13.0262 21.9555 13.0262H17.0707C16.8603 13.0262 16.6899 13.1967 16.6899 13.4071V22.7959H2.38997V11.8663C2.74955 11.9898 3.13468 12.0579 3.53564 12.0579C4.91156 12.0579 6.10639 11.2679 6.69043 10.1177C7.27447 11.2679 8.4693 12.0579 9.84521 12.0579C11.2211 12.0579 12.416 11.2679 13 10.1177C13.584 11.2679 14.7789 12.0579 16.1548 12.0579C17.5307 12.0579 18.7255 11.2679 19.3096 10.1177C19.8936 11.2679 21.0884 12.0579 22.4644 12.0579C22.8653 12.0579 23.2505 11.9898 23.61 11.8663V22.7959Z" fill="black"/>
<path d="M15.0354 13.0261H4.04446C3.83413 13.0261 3.6636 13.1966 3.6636 13.407V21.1413C3.6636 21.3517 3.83413 21.5222 4.04446 21.5222H15.0354C15.2457 21.5222 15.4162 21.3517 15.4162 21.1413V13.407C15.4162 13.1966 15.2457 13.0261 15.0354 13.0261ZM14.6545 20.7605H4.42532V13.7878H14.6545V20.7605Z" fill="black"/>
</svg>
