<svg width="24" height="25" viewBox="0 0 24 25" fill="none" xmlns="http://www.w3.org/2000/svg">
<g clip-path="url(#clip0)">
<path d="M11.829 11.7863C13.4172 11.7863 14.7925 11.2056 15.9163 10.0598C17.04 8.91415 17.6096 7.5124 17.6096 5.89299C17.6096 4.27413 17.04 2.8722 15.9161 1.72619C14.7922 0.580749 13.4171 0 11.829 0C10.2405 0 8.8656 0.580749 7.74188 1.72638C6.61816 2.87201 6.04834 4.27395 6.04834 5.89299C6.04834 7.5124 6.61816 8.91434 7.74207 10.06C8.86597 11.2054 10.2411 11.7863 11.829 11.7863V11.7863Z" fill="#B494BC"/>
<path d="M21.9435 18.8147C21.9111 18.3379 21.8456 17.8179 21.7491 17.2687C21.6517 16.7154 21.5262 16.1923 21.3761 15.7142C21.221 15.2201 21.0101 14.7321 20.7493 14.2645C20.4787 13.7791 20.1608 13.3565 19.8041 13.0087C19.4312 12.6449 18.9745 12.3524 18.4464 12.139C17.9202 11.9267 17.337 11.8192 16.7131 11.8192C16.4681 11.8192 16.2312 11.9217 15.7736 12.2254C15.492 12.4127 15.1626 12.6292 14.7949 12.8687C14.4805 13.0729 14.0546 13.2643 13.5286 13.4375C13.0153 13.6068 12.4942 13.6927 11.9799 13.6927C11.4655 13.6927 10.9446 13.6068 10.4308 13.4375C9.90527 13.2645 9.47937 13.0731 9.16534 12.8689C8.80115 12.6316 8.47156 12.4151 8.18573 12.2252C7.7287 11.9215 7.49158 11.819 7.24658 11.819C6.62256 11.819 6.03955 11.9267 5.51349 12.1392C4.98578 12.3522 4.52893 12.6447 4.15558 13.0089C3.79907 13.3569 3.48102 13.7793 3.21075 14.2645C2.9502 14.7321 2.73926 15.2199 2.58398 15.7144C2.43402 16.1925 2.30859 16.7154 2.21118 17.2687C2.11469 17.8171 2.04913 18.3374 2.01672 18.8153C1.98486 19.2835 1.96875 19.7694 1.96875 20.2601C1.96875 21.5374 2.367 22.5714 3.15234 23.3339C3.92798 24.0864 4.95428 24.4682 6.20233 24.4682H17.7585C19.0065 24.4682 20.0325 24.0866 20.8083 23.3339C21.5938 22.5719 21.9921 21.5378 21.9921 20.26C21.9919 19.7669 21.9756 19.2807 21.9435 18.8147V18.8147Z" fill="#B494BC"/>
</g>
<defs>
<clipPath id="clip0">
<rect width="24" height="24.4681" fill="white"/>
</clipPath>
</defs>
</svg>
