<svg width="26" height="26" viewBox="0 0 26 26" fill="none" xmlns="http://www.w3.org/2000/svg">
<path d="M6.06671 17.1167C4.6328 17.1167 3.46671 18.2828 3.46671 19.7167C3.46671 21.1506 4.6328 22.3167 6.06671 22.3167C7.50062 22.3167 8.66671 21.1506 8.66671 19.7167C8.66671 18.2828 7.50056 17.1167 6.06671 17.1167ZM6.06671 21.45C5.11075 21.45 4.33339 20.6726 4.33339 19.7167C4.33339 18.7607 5.1108 17.9834 6.06671 17.9834C7.02261 17.9834 7.80002 18.7608 7.80002 19.7167C7.80002 20.6726 7.02261 21.45 6.06671 21.45Z" fill="black"/>
<path d="M20.8 17.1167C19.3661 17.1167 18.2 18.2828 18.2 19.7167C18.2 21.1506 19.3661 22.3167 20.8 22.3167C22.2339 22.3167 23.4 21.1506 23.4 19.7167C23.4 18.2828 22.2339 17.1167 20.8 17.1167ZM20.8 21.45C19.844 21.45 19.0667 20.6726 19.0667 19.7167C19.0667 18.7607 19.8441 17.9834 20.8 17.9834C21.7559 17.9834 22.5333 18.7608 22.5333 19.7167C22.5333 20.6726 21.7559 21.45 20.8 21.45Z" fill="black"/>
<path d="M25.9311 14.7157L22.0311 8.64898C21.9514 8.52503 21.814 8.45007 21.6667 8.45007H16.9C16.6604 8.45007 16.4667 8.64421 16.4667 8.88339V19.7167C16.4667 19.9563 16.6604 20.15 16.9 20.15H18.6333V19.2833H17.3333V9.31676H21.4301L25.1333 15.0775V19.2834H22.9667V20.1501H25.5667C25.8063 20.1501 26 19.9564 26 19.7168V14.9501C26 14.8673 25.9762 14.7854 25.9311 14.7157Z" fill="black"/>
<path d="M19.0667 14.0834V11.05H22.5334V10.1833H18.6334C18.3938 10.1833 18.2001 10.3775 18.2001 10.6167V14.5167C18.2001 14.7563 18.3938 14.95 18.6334 14.95H25.1334V14.0833H19.0667V14.0834Z" fill="black"/>
<path d="M16.9 5.41663H0.433316C0.194137 5.41663 0 5.61076 0 5.84994V19.7166C0 19.9563 0.194137 20.1499 0.433316 20.1499H3.9V19.2833H0.866684V6.28326H16.4667V19.2833H8.23332V20.1499H16.9C17.1396 20.1499 17.3333 19.9563 17.3333 19.7166V5.84994C17.3333 5.61076 17.1396 5.41663 16.9 5.41663Z" fill="black"/>
<path d="M3.03329 17.55H0.433289V18.4167H3.03329V17.55Z" fill="black"/>
<path d="M16.4667 17.55H9.09998V18.4167H16.4667V17.55Z" fill="black"/>
<path d="M25.5666 17.55H23.8333V18.4167H25.5666V17.55Z" fill="black"/>
<path d="M16.9 7.1499H1.73334V8.01659H16.9V7.1499Z" fill="black"/>
<path d="M6.50001 19.2833H5.63333V20.15H6.50001V19.2833Z" fill="black"/>
<path d="M21.2334 19.2833H20.3667V20.15H21.2334V19.2833Z" fill="black"/>
<path d="M7.80002 3.68335H1.73334V4.55003H7.80002V3.68335Z" fill="black"/>
<path d="M0.866684 3.68335H0V4.55003H0.866684V3.68335Z" fill="black"/>
</svg>
