<svg width="25" height="26" viewBox="0 0 25 26" fill="none" xmlns="http://www.w3.org/2000/svg">
<path d="M24.2099 24.6927L22.1578 6.2133C22.1147 5.82644 21.7699 5.5327 21.3585 5.5327H17.5015V4.70113C17.5015 2.10902 15.2712 0 12.5301 0C9.78873 0 7.55844 2.10902 7.55844 4.70113V5.5327H3.70142C3.29006 5.5327 2.94522 5.82644 2.90217 6.2133L0.850066 24.6927C0.826377 24.9068 0.899916 25.1205 1.05215 25.2806C1.20458 25.4405 1.4217 25.5319 1.64932 25.5319H23.4104C23.6383 25.5319 23.8554 25.4405 24.0076 25.2806C24.1603 25.1205 24.2336 24.9068 24.2099 24.6927ZM9.1656 4.70113C9.1656 2.94702 10.6749 1.51977 12.5301 1.51977C14.3851 1.51977 15.8944 2.94702 15.8944 4.70113V5.5327H9.1656V4.70113ZM2.54168 24.0121L4.42508 7.05247H7.55844V8.7271C7.55844 9.14668 7.91831 9.48699 8.36202 9.48699C8.80573 9.48699 9.1656 9.14668 9.1656 8.7271V7.05247H15.8944V8.7271C15.8944 9.14668 16.2542 9.48699 16.6979 9.48699C17.1417 9.48699 17.5015 9.14668 17.5015 8.7271V7.05247H20.6349L22.5183 24.0121H2.54168Z" fill="#B494BC"/>
</svg>
